{
  "accessors": [
    {
      "bufferView": 1,
      "componentType": 5126,
      "count": 360,
      "max": [
        0.9816300272941589,
        0.9816300272941589,
        0.10000000149011612
      ],
      "min": [
        -0.9816300272941589,
        -1.2866699695587158,
        -0.10000000149011612
      ],
      "type": "VEC3"
    },
    {
      "bufferView": 1,
      "byteOffset": 4320,
      "componentType": 5126,
      "count": 360,
      "max": [
        0.9999905824661255,
        0.9999905824661255,
        0.9858672022819519
      ],
      "min": [
        -0.9999905824661255,
        -0.9999905824661255,
        -0.9858672022819519
      ],
      "type": "VEC3"
    },
    {
      "bufferView": 0,
      "componentType": 5125,
      "count": 558,
      "type": "SCALAR"
    },
    {
      "bufferView": 1,
      "byteOffset": 8640,
      "componentType": 5126,
      "count": 32,
      "max": [
        0.8638299703598022,
        0.8638299703598022,
        0.03999999910593033
      ],
      "min": [
        -0.8638299703598022,
        -0.8638299703598022,
        -0.03999999910593033
      ],
      "type": "VEC3"
    },
    {
      "bufferView": 1,
      "byteOffset": 9024,
      "componentType": 5126,
      "count": 32,
      "max": [
        0.0,
        0.0,
        1.0
      ],
      "min": [
        0.0,
        0.0,
        -1.0
      ],
      "type": "VEC3"
    },
    {
      "bufferView": 0,
      "byteOffset": 2232,
      "componentType": 5125,
      "count": 84,
      "type": "SCALAR"
    },
    {
      "bufferView": 1,
      "byteOffset": 9408,
      "componentType": 5126,
      "count": 80,
      "max": [
        0.13393999636173248,
        -1.2858500480651855,
        0.14083999395370483
      ],
      "min": [
        -0.15297000110149384,
        -2.986649990081787,
        -0.14083999395370483
      ],
      "type": "VEC3"
    },
    {
      "bufferView": 1,
      "byteOffset": 10368,
      "componentType": 5126,
      "count": 80,
      "max": [
        0.9720821976661682,
        0.6939401626586914,
        0.8532730340957642
      ],
      "min": [
        -0.9720821976661682,
        -0.9999958276748657,
        -0.8532730340957642
      ],
      "type": "VEC3"
    },
    {
      "bufferView": 0,
      "byteOffset": 2568,
      "componentType": 5125,
      "count": 120,
      "type": "SCALAR"
    }
  ],
  "asset": {
    "extras": {
      "author": "Jiří Kuba (https://sketchfab.com/kuba.jirka)",
      "license": "CC-BY-4.0 (http://creativecommons.org/licenses/by/4.0/)",
      "source": "https://sketchfab.com/3d-models/magnifier-87fc0d63b7df4aa7b80d6fda5a18dc8a",
      "title": "Magnifier"
    },
    "generator": "Sketchfab-12.68.0",
    "version": "2.0"
  },
  "bufferViews": [
    {
      "buffer": 0,
      "byteLength": 3048,
      "name": "floatBufferViews",
      "target": 34963
    },
    {
      "buffer": 0,
      "byteLength": 11328,
      "byteOffset": 3048,
      "byteStride": 12,
      "name": "floatBufferViews",
      "target": 34962
    }
  ],
  "buffers": [
    {
      "byteLength": 14376,
      "uri": "scene.bin"
    }
  ],
  "materials": [
    {
      "doubleSided": true,
      "name": "MagnifierMaterial",
      "pbrMetallicRoughness": {
        "baseColorFactor": [
          0.800000011920929,
          0.800000011920929,
          0.800000011920929,
          1.0
        ],
        "metallicFactor": 0.0,
        "roughnessFactor": 0.6
      }
    },
    {
      "alphaMode": "BLEND",
      "doubleSided": true,
      "name": "MagnifierGlassMaterial",
      "pbrMetallicRoughness": {
        "baseColorFactor": [
          0.26858118176460266,
          0.7546467185020442,
          0.8000051975250244,
          0.12023628048780495
        ],
        "metallicFactor": 0.0,
        "roughnessFactor": 0.6
      }
    },
    {
      "doubleSided": true,
      "name": "MagnifierHandleMaterial",
      "pbrMetallicRoughness": {
        "baseColorFactor": [
          0.8631573915481567,
          0.23074011504650116,
          0.023153377696871758,
          1.0
        ],
        "metallicFactor": 0.0,
        "roughnessFactor": 0.6
      }
    }
  ],
  "meshes": [
    {
      "name": "Magnifier_0",
      "primitives": [
        {
          "attributes": {
            "NORMAL": 1,
            "POSITION": 0
          },
          "indices": 2,
          "material": 0,
          "mode": 4
        }
      ]
    },
    {
      "name": "Magnifier_1",
      "primitives": [
        {
          "attributes": {
            "NORMAL": 4,
            "POSITION": 3
          },
          "indices": 5,
          "material": 1,
          "mode": 4
        }
      ]
    },
    {
      "name": "Magnifier_2",
      "primitives": [
        {
          "attributes": {
            "NORMAL": 7,
            "POSITION": 6
          },
          "indices": 8,
          "material": 2,
          "mode": 4
        }
      ]
    }
  ],
  "nodes": [
    {
      "children": [
        1
      ],
      "matrix": [
        450.83624267578125,
        0.0,
        0.0,
        0.0,
        0.0,
        1.0010575539082939e-13,
        -450.83624267578125,
        0.0,
        0.0,
        450.83624267578125,
        1.0010575539082939e-13,
        0.0,
        0.0,
        0.0,
        0.0,
        1.0
      ],
      "name": "Sketchfab_model"
    },
    {
      "children": [
        2
      ],
      "name": "Root"
    },
    {
      "children": [
        3,
        4,
        5
      ],
      "name": "Magnifier"
    },
    {
      "mesh": 0,
      "name": "Magnifier_0"
    },
    {
      "mesh": 1,
      "name": "Magnifier_1"
    },
    {
      "mesh": 2,
      "name": "Magnifier_2"
    }
  ],
  "scene": 0,
  "scenes": [
    {
      "name": "Sketchfab_Scene",
      "nodes": [
        0
      ]
    }
  ]
}
